<?xml version="1.0" encoding="utf-8"?>
<!-- Generator: Adobe Illustrator 23.1.1, SVG Export Plug-In . SVG Version: 6.00 Build 0)  -->
<svg version="1.1" id="Ebene_1" xmlns="http://www.w3.org/2000/svg" xmlns:xlink="http://www.w3.org/1999/xlink" x="0px" y="0px"
	 viewBox="0 0 46.8 56.6" style="enable-background:new 0 0 46.8 56.6;" xml:space="preserve">
<style type="text/css">
	.st0{fill:#F3F3F3;}
</style>
<g>
	<path class="st0" d="M31.8,40.9c0,0-0.1,0-0.1,0c-5.6-0.1-10.2-4.7-10.3-10.4C21.4,22,21.3,4.9,21.3,4.7c0-1.4,1.1-2.5,2.5-2.5h0
		c1.4,0,2.5,1.1,2.5,2.5c0,0.2,0.1,17.2,0.2,25.7c0,3,2.4,5.5,5.4,5.5c1.4,0.1,2.7-0.5,3.6-1.5c1-1,1.6-2.4,1.5-3.8
		c0-3-2.4-5.5-5.4-5.5c-1.4,0-2.5-1.1-2.5-2.5c0-1.4,1.1-2.5,2.5-2.5h0c5.6,0.1,10.2,4.7,10.3,10.4c0,2.8-1,5.4-3,7.4
		C37,39.8,34.5,40.9,31.8,40.9"/>
	<path class="st0" d="M20,40.6c-0.8-0.8-1.7-1.3-2.6-1.7V23.1l-6.6-7.5c-0.9-1-2.5-1.1-3.5-0.2c-1,0.9-1.1,2.5-0.2,3.5l5.4,6.1v13.9
		c-1,0.4-1.9,0.9-2.7,1.7c-2.8,2.8-2.8,7.4,0,10.3c2.8,2.8,7.4,2.8,10.3,0C22.9,48,22.9,43.4,20,40.6"/>
</g>
</svg>
