<?xml version="1.0" encoding="utf-8"?>
<!-- Generator: Adobe Illustrator 23.1.1, SVG Export Plug-In . SVG Version: 6.00 Build 0)  -->
<svg version="1.1" id="Ebene_1" xmlns="http://www.w3.org/2000/svg" xmlns:xlink="http://www.w3.org/1999/xlink" x="0px" y="0px"
	 viewBox="0 0 46.8 56.6" style="enable-background:new 0 0 46.8 56.6;" xml:space="preserve">
<style type="text/css">
	.st0{fill:#F3F3F3;}
</style>
<g>
	<path class="st0" d="M31.7,21.4c-2.9-2.9-2.9-7.6,0-10.5s7.6-2.9,10.5,0s2.9,7.6,0,10.5C39.3,24.3,34.6,24.3,31.7,21.4"/>
	<path class="st0" d="M31.7,47.2h-0.1c-5.8-0.1-10.6-4.8-10.7-10.5c0-1.4,1.1-2.5,2.5-2.6l0,0c1.4,0,2.5,1.1,2.5,2.5
		c0,3,2.6,5.5,5.6,5.5c1.5,0,2.9-0.5,3.9-1.6c1-1,1.5-2.3,1.5-3.7c0-3-2.6-5.5-5.6-5.5C22.6,31.2,5.1,31.1,5,31.1
		c-1.4,0-2.5-1.1-2.5-2.5s1.1-2.5,2.5-2.5l0,0c0.2,0,17.7,0.1,26.4,0.2c5.8,0.1,10.6,4.8,10.7,10.5c0,2.8-1,5.4-3,7.3
		C37.2,46.1,34.6,47.2,31.7,47.2z"/>
</g>
</svg>
